<?xml version="1.0" encoding="utf-8"?><svg fill="none" viewBox="0 0 1000 500" xmlns="http://www.w3.org/2000/svg"><defs><clipPath id="cp-1000-500"><rect height="500" width="1000" y="0" x="0" /></clipPath><g id="comp_1"><g id="Layer 1"><animate repeatCount="indefinite" begin="0s" calcMode="discrete" fill="freeze" dur="3s" values="visible; hidden" keyTimes="0; 1" attributeName="visibility" /><g transform="translate(133.214,294.711)"><animateTransform repeatCount="indefinite" type="translate" attributeName="transform" dur="1.6s" begin="0.4s" calcMode="spline" values="133.214 294.711; 446.214 294.711; 446.214 294.711; 965.214 294.711" keyTimes="0; 0.375; 0.575; 1" keySplines="0.333 0 0.667 1; 0 0 1 1; 0.333 0 0.667 1" fill="freeze" /><g transform="rotate(0)"><animateTransform repeatCount="indefinite" type="rotate" attributeName="transform" dur="0.44s" begin="1.32s" calcMode="spline" values="0; -8" keyTimes="0; 1" keySplines="0.333 0 0.667 1" fill="freeze" /><g transform="scale(0.516,0.516) translate(565.786,-88.365)"><g id="Group 9"><path fill="#ffffff" fill-opacity="1" d="M-426.223,75.064C-426.223,82.41,-420.267,88.365,-412.921,88.365C-405.575,88.365,-399.619,82.41,-399.619,75.064C-399.619,67.718,-405.575,61.762,-412.921,61.762C-420.267,61.762,-426.223,67.718,-426.223,75.064Z" /></g><g id="Group 8"><path fill="#ffffff" fill-opacity="1" d="M-494.992,75.064C-494.992,82.41,-489.036,88.365,-481.69,88.365C-474.344,88.365,-468.389,82.41,-468.389,75.064C-468.389,67.718,-474.344,61.762,-481.69,61.762C-489.036,61.762,-494.992,67.718,-494.992,75.064Z" /></g><g id="Group 7"><g id="Group 2"><path fill="#ffffff" fill-opacity="1" d="M-560.797,-78.637L-534.748,-78.637C-532.309,-78.637,-530.314,-80.631,-530.314,-83.07L-530.314,-83.07C-530.314,-85.509,-532.309,-87.504,-534.748,-87.504L-560.797,-87.504C-563.236,-87.504,-565.231,-85.509,-565.231,-83.07L-565.231,-83.07C-565.231,-80.631,-563.236,-78.637,-560.797,-78.637Z" /></g><g id="Group 1"><path fill="#ffffff" fill-opacity="1" d="M-534.748,-86.95C-532.609,-86.95,-530.868,-85.21,-530.868,-83.071C-530.868,-80.932,-532.609,-79.191,-534.748,-79.191L-560.797,-79.191C-562.936,-79.191,-564.677,-80.932,-564.677,-83.071C-564.677,-85.21,-562.936,-86.95,-560.797,-86.95L-534.748,-86.95ZM-560.797,-78.083L-534.748,-78.083C-531.997,-78.083,-529.76,-80.32,-529.76,-83.071C-529.76,-85.822,-531.997,-88.059,-534.748,-88.059L-560.797,-88.059C-563.548,-88.059,-565.786,-85.822,-565.786,-83.071C-565.786,-80.32,-563.548,-78.083,-560.797,-78.083Z" /></g></g><g id="Group 6"><g id="Group 2"><path fill="#ffffff" fill-opacity="1" d="M-498.168,56.404L-393.693,56.404C-391.254,56.404,-389.259,54.409,-389.259,51.97L-389.259,51.97C-389.259,49.531,-391.254,47.536,-393.693,47.536L-498.168,47.536C-500.607,47.536,-502.602,49.531,-502.602,51.97L-502.602,51.97C-502.602,54.409,-500.607,56.404,-498.168,56.404Z" /></g><g id="Group 1"><path fill="#ffffff" fill-opacity="1" d="M-393.693,48.091C-391.554,48.091,-389.813,49.831,-389.813,51.97C-389.813,54.109,-391.554,55.85,-393.693,55.85L-498.168,55.85C-500.307,55.85,-502.048,54.109,-502.048,51.97C-502.048,49.831,-500.307,48.091,-498.168,48.091L-393.693,48.091ZM-498.168,56.958L-393.693,56.958C-390.942,56.958,-388.704,54.721,-388.704,51.97C-388.704,49.219,-390.942,46.982,-393.693,46.982L-498.168,46.982C-500.919,46.982,-503.156,49.219,-503.156,51.97C-503.156,54.721,-500.919,56.958,-498.168,56.958Z" /></g></g><g id="Group 5"><g id="Group 2"><path fill="#ffffff" fill-opacity="1" d="M-494.741,50.395L-529.767,-84.188C-530.381,-86.548,-532.815,-87.976,-535.175,-87.362L-535.175,-87.362C-537.535,-86.748,-538.963,-84.314,-538.349,-81.954L-503.323,52.629C-502.709,54.989,-500.275,56.417,-497.915,55.803L-497.915,55.803C-495.555,55.189,-494.127,52.755,-494.741,50.395Z" /></g><g id="Group 1"><path fill="#ffffff" fill-opacity="1" d="M-534.065,-86.95C-532.295,-86.95,-530.748,-85.756,-530.304,-84.048L-495.277,50.535C-495.017,51.533,-495.164,52.577,-495.69,53.473C-496.216,54.37,-497.057,55.007,-498.055,55.268C-498.372,55.35,-498.699,55.392,-499.025,55.392C-500.795,55.392,-502.341,54.198,-502.787,52.489L-537.814,-82.093C-538.352,-84.164,-537.106,-86.287,-535.035,-86.825C-534.718,-86.908,-534.391,-86.95,-534.065,-86.95ZM-499.025,56.501C-498.605,56.501,-498.184,56.446,-497.775,56.34C-496.49,56.004,-495.411,55.187,-494.734,54.035C-494.057,52.882,-493.869,51.541,-494.205,50.256L-529.232,-84.328C-529.803,-86.524,-531.791,-88.059,-534.065,-88.059C-534.485,-88.059,-534.905,-88.005,-535.314,-87.899C-537.976,-87.206,-539.578,-84.477,-538.886,-81.814L-503.859,52.768C-503.287,54.965,-501.299,56.501,-499.025,56.501Z" /></g></g><g id="Group 4"><g id="Group 2"><path fill="#ffffff" fill-opacity="1" d="M-424.734,-56.93C-465.981,-56.772,-504.132,-56.562,-525.565,-56.435L-525.445,-49.784C-494.843,-49.965,-459.564,-50.139,-424.734,-50.268L-424.734,-56.93Z" /></g><g id="Group 1"><path fill="#ffffff" fill-opacity="1" d="M-523.693,-55.381L-523.612,-50.859C-491.853,-51.046,-458.389,-51.208,-426.587,-51.327L-426.587,-55.857C-466.864,-55.701,-503.948,-55.497,-523.693,-55.381ZM-527.278,-48.708L-527.437,-57.488L-525.584,-57.5C-506.08,-57.615,-467.046,-57.833,-424.747,-57.995L-422.882,-58.002L-422.882,-49.21L-424.723,-49.204C-457.686,-49.082,-492.508,-48.914,-525.425,-48.719L-527.278,-48.708Z" /></g></g><g id="Group 3"><path fill="#ffffff" fill-opacity="1" d="M-367.573,-56.09C-369.848,-56.781,-393.176,-56.97,-421.817,-56.932L-421.817,-50.274C-393.702,-50.324,-372.278,-50.183,-369.408,-49.697C-367.641,-49.14,-367.018,-48.369,-366.8,-47.926L-388.732,23.35L-505.608,23.35L-505.608,30.001L-383.819,30.001L-360.042,-47.275L-360.042,-47.775C-360.042,-50.015,-361.628,-54.285,-367.573,-56.09Z" /></g><g id="Group 2"><path fill="#ffffff" fill-opacity="1" d="M-383.033,31.066L-506.673,31.066L-506.673,22.285L-389.518,22.285L-367.97,-47.744C-368.214,-47.995,-368.702,-48.347,-369.656,-48.658C-371.374,-48.916,-380.122,-49.219,-411.606,-49.219C-414.888,-49.219,-418.3,-49.215,-421.815,-49.209L-422.882,-49.207L-422.882,-57.996L-421.818,-57.997C-419.539,-58,-417.297,-58.002,-415.094,-58.002C-374.857,-58.002,-368.526,-57.493,-367.264,-57.11C-360.723,-55.125,-358.977,-50.308,-358.977,-47.775L-358.977,-47.115L-359.024,-46.962L-383.033,31.066Z" /></g><g id="Group 1"><path fill="#ffffff" fill-opacity="1" d="M-504.543,28.936L-384.605,28.936L-361.107,-47.435L-361.107,-47.775C-361.107,-49.721,-362.534,-53.448,-367.882,-55.071C-368.867,-55.37,-376.311,-55.872,-415.094,-55.872C-416.953,-55.872,-418.84,-55.87,-420.752,-55.868L-420.752,-51.341C-417.611,-51.346,-414.557,-51.348,-411.606,-51.348C-385.845,-51.348,-371.587,-51.146,-369.23,-50.747L-369.087,-50.713C-367.028,-50.063,-366.187,-49.094,-365.844,-48.396L-365.658,-48.017L-387.945,24.415L-504.543,24.415L-504.543,28.936Z" /></g></g></g></g></g><g visibility="hidden" id="Layer 2"><animate repeatCount="indefinite" begin="1.96s" calcMode="discrete" fill="freeze" dur="3s" values="visible; visible" keyTimes="0; 1" attributeName="visibility" /><g transform="translate(-56.786,294.711)"><animateTransform repeatCount="indefinite" type="translate" attributeName="transform" dur="0.4s" begin="1.96s" calcMode="spline" values="-56.786 294.711; 133.214 294.711" keyTimes="0; 1" keySplines="0.333 0 0.667 1" fill="freeze" /><g transform="scale(0.516,0.516) translate(565.786,-88.365)"><g id="Group 9"><path fill="#ffffff" fill-opacity="1" d="M-426.223,75.064C-426.223,82.41,-420.267,88.365,-412.921,88.365C-405.575,88.365,-399.619,82.41,-399.619,75.064C-399.619,67.718,-405.575,61.762,-412.921,61.762C-420.267,61.762,-426.223,67.718,-426.223,75.064Z" /></g><g id="Group 8"><path fill="#ffffff" fill-opacity="1" d="M-494.992,75.064C-494.992,82.41,-489.036,88.365,-481.69,88.365C-474.344,88.365,-468.389,82.41,-468.389,75.064C-468.389,67.718,-474.344,61.762,-481.69,61.762C-489.036,61.762,-494.992,67.718,-494.992,75.064Z" /></g><g id="Group 7"><g id="Group 2"><path fill="#ffffff" fill-opacity="1" d="M-560.797,-78.637L-534.748,-78.637C-532.309,-78.637,-530.314,-80.631,-530.314,-83.07L-530.314,-83.07C-530.314,-85.509,-532.309,-87.504,-534.748,-87.504L-560.797,-87.504C-563.236,-87.504,-565.231,-85.509,-565.231,-83.07L-565.231,-83.07C-565.231,-80.631,-563.236,-78.637,-560.797,-78.637Z" /></g><g id="Group 1"><path fill="#ffffff" fill-opacity="1" d="M-534.748,-86.95C-532.609,-86.95,-530.868,-85.21,-530.868,-83.071C-530.868,-80.932,-532.609,-79.191,-534.748,-79.191L-560.797,-79.191C-562.936,-79.191,-564.677,-80.932,-564.677,-83.071C-564.677,-85.21,-562.936,-86.95,-560.797,-86.95L-534.748,-86.95ZM-560.797,-78.083L-534.748,-78.083C-531.997,-78.083,-529.76,-80.32,-529.76,-83.071C-529.76,-85.822,-531.997,-88.059,-534.748,-88.059L-560.797,-88.059C-563.548,-88.059,-565.786,-85.822,-565.786,-83.071C-565.786,-80.32,-563.548,-78.083,-560.797,-78.083Z" /></g></g><g id="Group 6"><g id="Group 2"><path fill="#ffffff" fill-opacity="1" d="M-498.168,56.404L-393.693,56.404C-391.254,56.404,-389.259,54.409,-389.259,51.97L-389.259,51.97C-389.259,49.531,-391.254,47.536,-393.693,47.536L-498.168,47.536C-500.607,47.536,-502.602,49.531,-502.602,51.97L-502.602,51.97C-502.602,54.409,-500.607,56.404,-498.168,56.404Z" /></g><g id="Group 1"><path fill="#ffffff" fill-opacity="1" d="M-393.693,48.091C-391.554,48.091,-389.813,49.831,-389.813,51.97C-389.813,54.109,-391.554,55.85,-393.693,55.85L-498.168,55.85C-500.307,55.85,-502.048,54.109,-502.048,51.97C-502.048,49.831,-500.307,48.091,-498.168,48.091L-393.693,48.091ZM-498.168,56.958L-393.693,56.958C-390.942,56.958,-388.704,54.721,-388.704,51.97C-388.704,49.219,-390.942,46.982,-393.693,46.982L-498.168,46.982C-500.919,46.982,-503.156,49.219,-503.156,51.97C-503.156,54.721,-500.919,56.958,-498.168,56.958Z" /></g></g><g id="Group 5"><g id="Group 2"><path fill="#ffffff" fill-opacity="1" d="M-494.741,50.395L-529.767,-84.188C-530.381,-86.548,-532.815,-87.976,-535.175,-87.362L-535.175,-87.362C-537.535,-86.748,-538.963,-84.314,-538.349,-81.954L-503.323,52.629C-502.709,54.989,-500.275,56.417,-497.915,55.803L-497.915,55.803C-495.555,55.189,-494.127,52.755,-494.741,50.395Z" /></g><g id="Group 1"><path fill="#ffffff" fill-opacity="1" d="M-534.065,-86.95C-532.295,-86.95,-530.748,-85.756,-530.304,-84.048L-495.277,50.535C-495.017,51.533,-495.164,52.577,-495.69,53.473C-496.216,54.37,-497.057,55.007,-498.055,55.268C-498.372,55.35,-498.699,55.392,-499.025,55.392C-500.795,55.392,-502.341,54.198,-502.787,52.489L-537.814,-82.093C-538.352,-84.164,-537.106,-86.287,-535.035,-86.825C-534.718,-86.908,-534.391,-86.95,-534.065,-86.95ZM-499.025,56.501C-498.605,56.501,-498.184,56.446,-497.775,56.34C-496.49,56.004,-495.411,55.187,-494.734,54.035C-494.057,52.882,-493.869,51.541,-494.205,50.256L-529.232,-84.328C-529.803,-86.524,-531.791,-88.059,-534.065,-88.059C-534.485,-88.059,-534.905,-88.005,-535.314,-87.899C-537.976,-87.206,-539.578,-84.477,-538.886,-81.814L-503.859,52.768C-503.287,54.965,-501.299,56.501,-499.025,56.501Z" /></g></g><g id="Group 4"><g id="Group 2"><path fill="#ffffff" fill-opacity="1" d="M-424.734,-56.93C-465.981,-56.772,-504.132,-56.562,-525.565,-56.435L-525.445,-49.784C-494.843,-49.965,-459.564,-50.139,-424.734,-50.268L-424.734,-56.93Z" /></g><g id="Group 1"><path fill="#ffffff" fill-opacity="1" d="M-523.693,-55.381L-523.612,-50.859C-491.853,-51.046,-458.389,-51.208,-426.587,-51.327L-426.587,-55.857C-466.864,-55.701,-503.948,-55.497,-523.693,-55.381ZM-527.278,-48.708L-527.437,-57.488L-525.584,-57.5C-506.08,-57.615,-467.046,-57.833,-424.747,-57.995L-422.882,-58.002L-422.882,-49.21L-424.723,-49.204C-457.686,-49.082,-492.508,-48.914,-525.425,-48.719L-527.278,-48.708Z" /></g></g><g id="Group 3"><path fill="#ffffff" fill-opacity="1" d="M-367.573,-56.09C-369.848,-56.781,-393.176,-56.97,-421.817,-56.932L-421.817,-50.274C-393.702,-50.324,-372.278,-50.183,-369.408,-49.697C-367.641,-49.14,-367.018,-48.369,-366.8,-47.926L-388.732,23.35L-505.608,23.35L-505.608,30.001L-383.819,30.001L-360.042,-47.275L-360.042,-47.775C-360.042,-50.015,-361.628,-54.285,-367.573,-56.09Z" /></g><g id="Group 2"><path fill="#ffffff" fill-opacity="1" d="M-383.033,31.066L-506.673,31.066L-506.673,22.285L-389.518,22.285L-367.97,-47.744C-368.214,-47.995,-368.702,-48.347,-369.656,-48.658C-371.374,-48.916,-380.122,-49.219,-411.606,-49.219C-414.888,-49.219,-418.3,-49.215,-421.815,-49.209L-422.882,-49.207L-422.882,-57.996L-421.818,-57.997C-419.539,-58,-417.297,-58.002,-415.094,-58.002C-374.857,-58.002,-368.526,-57.493,-367.264,-57.11C-360.723,-55.125,-358.977,-50.308,-358.977,-47.775L-358.977,-47.115L-359.024,-46.962L-383.033,31.066Z" /></g><g id="Group 1"><path fill="#ffffff" fill-opacity="1" d="M-504.543,28.936L-384.605,28.936L-361.107,-47.435L-361.107,-47.775C-361.107,-49.721,-362.534,-53.448,-367.882,-55.071C-368.867,-55.37,-376.311,-55.872,-415.094,-55.872C-416.953,-55.872,-418.84,-55.87,-420.752,-55.868L-420.752,-51.341C-417.611,-51.346,-414.557,-51.348,-411.606,-51.348C-385.845,-51.348,-371.587,-51.146,-369.23,-50.747L-369.087,-50.713C-367.028,-50.063,-366.187,-49.094,-365.844,-48.396L-365.658,-48.017L-387.945,24.415L-504.543,24.415L-504.543,28.936Z" /></g></g></g></g><g opacity="1" id="ADD TO CART"><animate repeatCount="indefinite" begin="0s" calcMode="discrete" fill="freeze" dur="3s" values="visible; hidden" keyTimes="0; 1" attributeName="visibility" /><animate repeatCount="indefinite" attributeName="opacity" dur="1.96s" begin="0.4s" calcMode="spline" values="1; 0; 0; 1" keyTimes="0; 0.204; 0.796; 1" keySplines="0.333 0 0.667 1; 0.333 0 0.833 1; 0.167 0 0.833 1" fill="freeze" /><g transform="translate(571,249.5) scale(1,1) translate(1,18.765)" /></g><g id="Layer 1"><g transform="translate(133.214,294.711)"><animateTransform repeatCount="indefinite" type="translate" attributeName="transform" dur="1.6s" begin="0.4s" calcMode="spline" values="133.214 294.711; 446.214 294.711; 446.214 294.711; 965.214 294.711" keyTimes="0; 0.375; 0.575; 1" keySplines="0.333 0 0.667 1; 0 0 1 1; 0.333 0 0.667 1" fill="freeze" /><g transform="rotate(0)"><animateTransform repeatCount="indefinite" type="rotate" attributeName="transform" dur="0.44s" begin="1.32s" calcMode="spline" values="0; -8" keyTimes="0; 1" keySplines="0.333 0 0.667 1" fill="freeze" /><g transform="scale(0.516,0.516) translate(565.786,-88.365)"><g transform="matrix(1.936,0,0,1.936,-461.643,1.793)" visibility="hidden" id="Shape Layer 1"><animate repeatCount="indefinite" begin="1.08s" calcMode="discrete" fill="freeze" dur="1.92s" values="visible; hidden" keyTimes="0; 1" attributeName="visibility" /><g id="Shape 1"><path stroke-linejoin="miter" stroke-linecap="butt" stroke-width="0" stroke-opacity="1" stroke="#000000" fill="#ffffff" fill-opacity="1" d="M50,-28.5L-31.25,-28L-31.5,-27.75L50.25,-28L50.25,-28L50,-28.5Z" /></g></g></g></g></g></g></g><g id="comp_0"><g id="BG"><g transform="translate(501,249.5)"><g transform="scale(1,1)"><animateTransform repeatCount="indefinite" type="scale" attributeName="transform" dur="0.32s" begin="0s" calcMode="spline" values="1 1; 0.95 0.95; 1 1" keyTimes="0; 0.5; 1" keySplines="0.333 0 0.667 1; 0.333 0 0.667 1" fill="freeze" /><g transform="translate(-1,-12.5)"><g id="Bag"><animate repeatCount="indefinite" begin="0s" calcMode="discrete" fill="freeze" dur="1.36s" values="visible; hidden" keyTimes="0; 1" attributeName="visibility" /><g transform="translate(1,12.5)"><animateTransform repeatCount="indefinite" type="translate" attributeName="transform" dur="1.32s" begin="0s" calcMode="spline" values="1 12.5; 1 -133.642; 1 -133.642; 1 6.453" keyTimes="0; 0.394; 0.545; 1" keySplines="0.333 0 0.667 1; 0 0 1 1; 0.333 0 0.667 1" fill="freeze" /><g transform="scale(0.142,0.142) translate(142.36,-55.657)"><g id="Group 3" transform="matrix(1,0,0,1,-142.36,72.214)"><rect height="232.132" width="220.715" y="0" x="0" fill="#0a2251" fill-opacity="1" /></g><g id="Group 2"><path fill="#052f45" fill-opacity="1" d="M-142.359,-76.967C-127.29,-76.967,-113.642,-70.858,-103.761,-60.984C-93.885,-51.106,-87.78,-37.459,-87.78,-22.387L-93.749,-22.387C-93.749,-35.81,-99.193,-47.964,-107.986,-56.761C-116.783,-65.555,-128.937,-70.999,-142.359,-70.999C-155.783,-70.999,-167.937,-65.555,-176.732,-56.761C-185.529,-47.964,-190.971,-35.81,-190.971,-22.387L-196.939,-22.387C-196.939,-37.459,-190.831,-51.106,-180.955,-60.984C-171.077,-70.858,-157.43,-76.967,-142.359,-76.967Z" /></g><g id="Group 1"><path fill="#052f45" fill-opacity="1" d="M-91.417,-11.398C-87.746,-11.398,-84.746,-14.397,-84.746,-18.073C-84.746,-21.749,-87.746,-24.749,-91.417,-24.749C-95.092,-24.749,-98.096,-21.749,-98.096,-18.073C-98.096,-14.397,-95.092,-11.398,-91.417,-11.398Z" /></g></g></g></g></g></g></g></g><g id="BG"><g transform="translate(501,249.5)"><g transform="scale(1,1)"><animateTransform repeatCount="indefinite" type="scale" attributeName="transform" dur="0.32s" begin="0s" calcMode="spline" values="1 1; 0.95 0.95; 1 1" keyTimes="0; 0.5; 1" keySplines="0.333 0 0.667 1; 0.333 0 0.667 1" fill="freeze" /><g transform="translate(-1,-12.5)"><g id="Rectangle 1" transform="matrix(1,0,0,1,1,12.5)"><rect ry="209" rx="209" height="201" width="898" y="0" x="0" fill="#0a2251" fill-opacity="1" /></g></g></g></g></g><g id="BG"><g transform="translate(501,249.5)"><g transform="scale(1,1)"><animateTransform repeatCount="indefinite" type="scale" attributeName="transform" dur="0.32s" begin="0s" calcMode="spline" values="1 1; 0.95 0.95; 1 1" keyTimes="0; 0.5; 1" keySplines="0.333 0 0.667 1; 0.333 0 0.667 1" fill="freeze" /><g transform="translate(-1,-12.5)"><g visibility="hidden" id="Bag 2"><animate repeatCount="indefinite" begin="0.88s" calcMode="discrete" fill="freeze" dur="0.48s" values="visible; hidden" keyTimes="0; 1" attributeName="visibility" /><g transform="translate(1,12.5)"><animateTransform repeatCount="indefinite" type="translate" attributeName="transform" dur="1.32s" begin="0s" calcMode="spline" values="1 12.5; 1 -133.642; 1 -133.642; 1 6.453" keyTimes="0; 0.394; 0.545; 1" keySplines="0.333 0 0.667 1; 0 0 1 1; 0.333 0 0.667 1" fill="freeze" /><g transform="scale(0.142,0.142) translate(142.36,-55.657)"><g id="Group 3" transform="matrix(1,0,0,1,-142.36,72.214)"><rect height="232.132" width="220.715" y="0" x="0" fill="#0a2251" fill-opacity="1" /></g><g><g transform="translate(-142.803,187.902)"><g transform="scale(1,0)"><animateTransform repeatCount="indefinite" type="scale" attributeName="transform" dur="0.12s" begin="0.88s" calcMode="spline" values="1 0; 1 1" keyTimes="0; 1" keySplines="0 0 1 1" fill="freeze" /><g id="Group 4" transform="translate(0.443,-115.687)"><rect height="232.132" width="220.715" y="0" x="0" fill="#ffffff" fill-opacity="1" /></g></g></g></g><g id="Group 2"><path fill="#052f45" fill-opacity="1" d="M-142.359,-76.967C-127.29,-76.967,-113.642,-70.858,-103.761,-60.984C-93.885,-51.106,-87.78,-37.459,-87.78,-22.387L-93.749,-22.387C-93.749,-35.81,-99.193,-47.964,-107.986,-56.761C-116.783,-65.555,-128.937,-70.999,-142.359,-70.999C-155.783,-70.999,-167.937,-65.555,-176.732,-56.761C-185.529,-47.964,-190.971,-35.81,-190.971,-22.387L-196.939,-22.387C-196.939,-37.459,-190.831,-51.106,-180.955,-60.984C-171.077,-70.858,-157.43,-76.967,-142.359,-76.967Z" /></g><g id="Group 1"><path fill="#052f45" fill-opacity="1" d="M-91.417,-11.398C-87.746,-11.398,-84.746,-14.397,-84.746,-18.073C-84.746,-21.749,-87.746,-24.749,-91.417,-24.749C-95.092,-24.749,-98.096,-21.749,-98.096,-18.073C-98.096,-14.397,-95.092,-11.398,-91.417,-11.398Z" /></g></g></g></g></g></g></g></g><g id="BG"><g transform="translate(501,249.5)"><g transform="scale(1,1)"><animateTransform repeatCount="indefinite" type="scale" attributeName="transform" dur="0.32s" begin="0s" calcMode="spline" values="1 1; 0.95 0.95; 1 1" keyTimes="0; 0.5; 1" keySplines="0.333 0 0.667 1; 0.333 0 0.667 1" fill="freeze" /><g transform="translate(-1,-12.5)"><g transform="matrix(1.008,0,0,1.008,-503.943,-238.963)" id="Pre-comp 1"><use clip-path="url(#cp-1000-500)" height="500" width="1000" y="0" x="0" xlink:href="#comp_1" href="#comp_1" /></g></g></g></g></g><g id="BG"><g transform="translate(501,249.5)"><g transform="scale(1,1)"><animateTransform repeatCount="indefinite" type="scale" attributeName="transform" dur="0.32s" begin="0s" calcMode="spline" values="1 1; 0.95 0.95; 1 1" keyTimes="0; 0.5; 1" keySplines="0.333 0 0.667 1; 0.333 0 0.667 1" fill="freeze" /><g transform="translate(-1,-12.5)"><g transform="matrix(1.008,0,0,1.008,-0.008,-0.098)" id="BG 2"><g id="Rectangle 1" transform="matrix(1,0,0,1,1,12.5)"><rect ry="209" rx="209" height="201" width="898" y="0" x="0" fill="#0a2251" fill-opacity="1" /></g></g></g></g></g></g></g></defs><g transform="matrix(1,0,0,1,0,0)" id="White Solid 1" /><g transform="matrix(0.556,0,0,0.556,222,111)" id="Pre-comp 2"><use clip-path="url(#cp-1000-500)" height="500" width="1000" y="0" x="0" xlink:href="#comp_0" href="#comp_0" /></g></svg>